<svg width="31" height="24" viewBox="0 0 31 24" fill="none" xmlns="http://www.w3.org/2000/svg">
<path d="M28.0121 0.585937L3.23385 0.585937C2.43967 0.585937 1.76462 0.863899 1.2087 1.41982C0.652778 1.97574 0.374817 2.65079 0.374817 3.44497L0.374817 20.5992C0.374817 21.3933 0.652778 22.0684 1.2087 22.6243C1.76462 23.1802 2.43967 23.4582 3.23385 23.4582L28.0121 23.4582C28.8063 23.4582 29.4814 23.1802 30.0373 22.6243C30.5932 22.0684 30.8712 21.3933 30.8712 20.5992V3.44497C30.8712 2.65079 30.5932 1.97574 30.0373 1.41982C29.4814 0.863899 28.8063 0.585937 28.0121 0.585937ZM3.23385 2.49196L28.0121 2.49196C28.2901 2.49196 28.5085 2.59123 28.6673 2.78977C28.8659 2.94861 28.9651 3.16701 28.9651 3.44497V5.88706C27.5753 7.07832 24.5773 9.50056 19.9711 13.1538L19.3755 13.6303C18.5813 14.3053 17.9658 14.7818 17.529 15.0598C16.7745 15.576 16.1392 15.8341 15.623 15.8341C15.1068 15.8341 14.4714 15.576 13.717 15.0598C13.2405 14.7818 12.6051 14.3053 11.8109 13.6303L11.2749 13.1538C6.66866 9.50056 3.67065 7.07832 2.28084 5.88706L2.28084 3.44497C2.28084 3.16701 2.36026 2.94861 2.51909 2.78977C2.71763 2.59123 2.95589 2.49196 3.23385 2.49196ZM28.0121 21.5522L3.23385 21.5522C2.95589 21.5522 2.71763 21.4728 2.51909 21.3139C2.36026 21.1154 2.28084 20.8771 2.28084 20.5992L2.28084 8.38871C3.67065 9.50056 6.27157 11.5853 10.0836 14.6428L10.6792 15.1194C11.5925 15.9135 12.347 16.4893 12.9426 16.8467C13.9354 17.4423 14.8288 17.7401 15.623 17.7401C16.4172 17.7401 17.3106 17.4423 18.3033 16.8467C18.8593 16.4893 19.6137 15.9135 20.5667 15.1194L21.1624 14.6428C24.9744 11.5853 27.5753 9.50056 28.9651 8.38871V20.5992C28.9651 20.8771 28.8659 21.1154 28.6673 21.3139C28.5085 21.4728 28.2901 21.5522 28.0121 21.5522Z" fill="#BFB273"/>
</svg>
