<svg width="31" height="31" viewBox="0 0 31 31" fill="none" xmlns="http://www.w3.org/2000/svg">
<path d="M29.5683 29.1744L30.9383 23.1585C31.0574 22.7217 30.9979 22.3047 30.7596 21.9077C30.5611 21.5106 30.2633 21.2128 29.8662 21.0142L23.4333 18.2743C23.0363 18.1155 22.6392 18.0758 22.2421 18.1552C21.845 18.2743 21.5075 18.4927 21.2295 18.8104L18.6087 22.0268C16.5439 20.9944 14.6974 19.6641 13.0693 18.0361C11.4413 16.408 10.111 14.5615 9.07862 12.4967L12.295 9.8759C12.6127 9.59794 12.8112 9.26042 12.8907 8.86333C13.0098 8.46624 12.9899 8.06915 12.8311 7.67206L10.0912 1.23924C9.89265 0.842155 9.59483 0.524485 9.19774 0.286233C8.80066 0.0876887 8.38371 0.0479799 7.94692 0.167106L1.93104 1.53706C1.53395 1.65619 1.19642 1.87458 0.918465 2.19225C0.640503 2.54963 0.501522 2.94672 0.501522 3.38352C0.501522 8.30741 1.73249 12.8739 4.19444 17.083C6.61667 21.2128 9.87279 24.4689 13.9628 26.8514C18.2116 29.3531 22.8179 30.6039 27.7815 30.6039C28.1785 30.6039 28.5359 30.4649 28.8536 30.1869C29.211 29.909 29.4492 29.5715 29.5683 29.1744ZM2.40754 3.38352L8.36386 2.01356L11.1038 8.44639L6.75565 11.9606C8.18517 15.0579 9.83308 17.5397 11.6994 19.406C13.5657 21.2723 16.0475 22.9202 19.1448 24.3498L22.659 20.0016L29.0918 22.7415L27.7219 28.6979C23.1554 28.6979 18.9065 27.5463 14.9754 25.2432C11.1236 22.9798 8.0859 19.9421 5.86221 16.13C3.5591 12.1989 2.40754 7.95003 2.40754 3.38352Z" fill="#BFB273"/>
</svg>
