<svg width="21" height="17" viewBox="0 0 21 17" fill="none" xmlns="http://www.w3.org/2000/svg">
<path d="M18.6292 0.88916L2.02872 0.88916C1.49666 0.88916 1.0444 1.07538 0.671951 1.44783C0.299505 1.82028 0.113281 2.27253 0.113281 2.8046L0.113281 14.2972C0.113281 14.8293 0.299505 15.2816 0.671951 15.654C1.0444 16.0265 1.49666 16.2127 2.02872 16.2127H18.6292C19.1613 16.2127 19.6135 16.0265 19.986 15.654C20.3584 15.2816 20.5446 14.8293 20.5446 14.2972V2.8046C20.5446 2.27253 20.3584 1.82028 19.986 1.44783C19.6135 1.07538 19.1613 0.88916 18.6292 0.88916ZM2.02872 2.16612L18.6292 2.16612C18.8154 2.16612 18.9618 2.23263 19.0682 2.36565C19.2012 2.47206 19.2677 2.61838 19.2677 2.8046V4.44071C18.3366 5.23881 16.328 6.86161 13.242 9.30912L12.843 9.62836C12.3109 10.0806 11.8986 10.3999 11.6059 10.5861C11.1005 10.9319 10.6748 11.1048 10.329 11.1048C9.98312 11.1048 9.55747 10.9319 9.052 10.5861C8.73277 10.3999 8.30711 10.0806 7.77504 9.62836L7.4159 9.30912C4.32991 6.86161 2.32136 5.23881 1.39024 4.44071V2.8046C1.39024 2.61838 1.44345 2.47206 1.54986 2.36565C1.68288 2.23263 1.8425 2.16612 2.02872 2.16612ZM18.6292 14.9357L2.02872 14.9357C1.8425 14.9357 1.68288 14.8825 1.54986 14.7761C1.44345 14.6431 1.39024 14.4835 1.39024 14.2972L1.39024 6.11672C2.32136 6.86161 4.06388 8.25829 6.6178 10.3067L7.01685 10.626C7.62873 11.1581 8.13419 11.5438 8.53324 11.7832C9.19832 12.1823 9.7969 12.3818 10.329 12.3818C10.861 12.3818 11.4596 12.1823 12.1247 11.7832C12.4971 11.5438 13.0026 11.1581 13.6411 10.626L14.0401 10.3067C16.5941 8.25829 18.3366 6.86161 19.2677 6.11672V14.2972C19.2677 14.4835 19.2012 14.6431 19.0682 14.7761C18.9618 14.8825 18.8154 14.9357 18.6292 14.9357Z" fill="#0F001A"/>
</svg>
