<svg width="22" height="21" viewBox="0 0 22 21" fill="none" xmlns="http://www.w3.org/2000/svg">
<path d="M20.3313 19.8043L21.2492 15.7739C21.329 15.4813 21.2891 15.2019 21.1294 14.9359C20.9964 14.6699 20.7969 14.4703 20.5309 14.3373L16.2211 12.5017C15.9551 12.3953 15.6891 12.3687 15.423 12.4219C15.157 12.5017 14.9309 12.648 14.7446 12.8608L12.9888 15.0157C11.6054 14.324 10.3684 13.4328 9.27765 12.3421C8.18692 11.2513 7.2957 10.0143 6.60402 8.63091L8.75889 6.87509C8.97171 6.68887 9.10473 6.46274 9.15794 6.19671C9.23775 5.93068 9.22445 5.66464 9.11803 5.39861L7.2824 1.08887C7.14939 0.822834 6.94986 0.610007 6.68383 0.450387C6.41779 0.31737 6.13846 0.290767 5.84582 0.370577L1.81541 1.28839C1.54938 1.3682 1.32325 1.51452 1.13703 1.72735C0.950806 1.96678 0.857695 2.23281 0.857695 2.52545C0.857695 5.82426 1.6824 8.88365 3.3318 11.7036C4.95461 14.4703 7.13608 16.6518 9.87623 18.248C12.7228 19.924 15.8088 20.762 19.1342 20.762C19.4002 20.762 19.6397 20.6689 19.8525 20.4827C20.0919 20.2965 20.2515 20.0704 20.3313 19.8043ZM2.13465 2.52545L6.12516 1.60763L7.96079 5.91737L5.04772 8.27177C6.00544 10.3468 7.10948 12.0095 8.35984 13.2599C9.61019 14.5103 11.2729 15.6143 13.348 16.572L15.7024 13.6589L20.0121 15.4946L19.0943 19.4851C16.0349 19.4851 13.1883 18.7136 10.5546 17.1706C7.97409 15.6542 5.93893 13.619 4.44915 11.0651C2.90615 8.43139 2.13465 5.58483 2.13465 2.52545Z" fill="#0F001A"/>
</svg>
