<svg width="57" height="57" viewBox="0 0 57 57" fill="none" xmlns="http://www.w3.org/2000/svg">
<path d="M56.709 28.0514C56.709 26.4897 55.4819 25.151 54.0317 24.9279L53.6971 24.147L52.6931 24.5932L52.8046 24.9279C51.5775 25.2625 50.6851 26.2666 50.462 27.4937H43.5456C43.3225 24.0355 41.9839 20.6888 39.5297 18.1231L44.438 13.3263C44.8843 13.6609 45.5536 13.7724 46.1114 13.7724C46.6691 13.7724 47.3384 13.5494 47.7847 13.3263L48.7887 12.88L48.5656 12.4338C49.0118 11.8761 49.2349 11.2067 49.1233 10.5374C49.1233 9.64498 48.7887 8.8641 48.1193 8.30633C47.5616 7.74856 46.7807 7.41391 45.8883 7.41391C45.1074 7.41391 44.438 7.63696 43.8803 8.19473L43.211 7.97168L42.7647 8.97563L43.0994 9.08722C42.8763 9.53344 42.6532 10.0912 42.6532 10.6489C42.6532 11.3183 42.8763 12.0992 43.3225 12.5454L38.4141 17.3422C35.7368 14.888 32.2787 13.4378 28.5974 13.4378V6.63302C29.936 6.52146 31.0516 5.51746 31.3862 4.17881H31.4978L31.944 3.1748L31.4978 2.95174C31.2747 1.38998 29.936 0.274414 28.3742 0.274414C27.4818 0.274414 26.7009 0.609104 26.1432 1.27843C25.5854 1.8362 25.2507 2.72863 25.2507 3.50951V3.62104C25.2507 4.40192 25.5854 5.18283 26.1432 5.7406C26.5894 6.18681 27.0356 6.40987 27.5934 6.52142V13.4378C24.0236 13.6609 20.7886 15.2227 18.3344 17.5653L13.5375 12.6569C13.8722 12.0991 14.0953 11.5414 14.0953 10.8721C14.0953 10.4258 13.9837 9.97961 13.7606 9.5334L14.2069 9.31028L13.7606 8.30633L13.0913 8.64098C12.5336 8.08321 11.7527 7.74856 10.8603 7.74856C9.96782 7.74856 9.18694 8.08318 8.62917 8.7525C8.0714 9.31028 7.73672 10.2027 7.73672 10.9836C7.73672 11.6529 7.95983 12.3223 8.40605 12.88L8.0714 13.7724L9.07538 14.2187L9.29847 13.6609C9.74469 13.9956 10.3025 14.1072 10.8603 14.1072C11.5296 14.1072 12.0873 13.8841 12.6451 13.5494L17.4419 18.4577C15.0993 21.0235 13.7607 24.3701 13.6491 28.0514H6.8443C6.62119 26.6012 5.39409 25.4856 3.94388 25.4856L3.38611 25.2626L3.27455 25.4856C1.71279 25.7087 0.485702 27.0474 0.597257 28.6092C0.597257 30.2825 1.82435 31.5096 3.38611 31.7327L3.49767 32.0674L4.50165 31.6211C5.05942 31.5096 5.50563 31.1749 5.95184 30.8403C6.39806 30.3941 6.73274 29.8363 6.8443 29.167H13.7606C13.9837 32.7367 15.434 36.0833 17.7766 38.5375L12.8682 43.3343C12.422 42.9996 11.8642 42.8881 11.1949 42.8881C10.6371 42.8881 10.0794 43.1112 9.63315 43.3343L9.52159 42.9997L8.51761 43.4459L8.85226 44.1152C8.40604 44.673 8.18293 45.3423 8.18293 46.0116C8.18293 46.9041 8.51762 47.6849 9.18694 48.2427C9.85627 48.8005 10.6371 49.1351 11.418 49.1351C12.1989 49.1351 13.0913 48.8005 13.6491 48.1312L13.7606 48.0196L14.2069 48.2427L14.6531 47.2387L14.3184 47.1272C14.43 46.7925 14.5415 46.3463 14.5415 46.0116C14.5415 45.3423 14.3184 44.5614 13.8722 44.1152L18.7806 39.3184C21.3463 41.661 24.8045 43.2228 28.5974 43.2228V50.0276C27.8165 50.1391 27.1471 50.3623 26.7009 50.92C26.3663 51.2547 26.1432 51.5894 26.0316 52.0356L25.5854 53.0395L25.8085 53.1511C25.8085 54.936 27.2587 56.2746 28.932 56.2746C30.4938 56.2746 31.8324 55.0475 32.0555 53.5973L32.2786 53.4858L32.0555 53.0395C32.0555 51.5893 31.0516 50.4738 29.7129 50.1391V43.2228C33.2826 42.9997 36.5177 41.4379 38.9719 39.0953L43.7687 44.0037C42.9879 45.1192 42.9879 46.5694 43.7687 47.5734L43.211 47.7965L43.6572 48.8005L44.6612 48.3542C45.2189 48.6889 45.7767 48.912 46.3345 48.912C47.2269 48.912 48.0078 48.5774 48.5656 47.9081C49.6811 46.681 49.7927 44.7845 48.6771 43.5574L48.7887 43.2228L47.7847 42.7765C47.3384 42.5534 46.7807 42.4419 46.3345 42.4419C45.6651 42.4419 45.1074 42.665 44.5496 42.9997L39.7528 38.0913C42.0954 35.5256 43.4341 32.1789 43.5456 28.4976H50.3504C50.462 29.1669 50.7966 29.7247 51.2428 30.1709C51.5775 30.5056 52.1353 30.8403 52.5815 30.9518L52.47 31.2865L53.4739 31.7327L53.6971 31.0633C54.4779 30.9518 55.1472 30.7287 55.705 30.1709C56.3743 29.6131 56.709 28.8323 56.709 28.0514ZM5.39407 29.9478C5.05941 30.394 4.50165 30.5056 3.94388 30.6172C2.82834 30.6172 1.93592 29.7247 1.93592 28.6092C1.93592 27.4937 2.82834 26.4896 3.94388 26.4896C5.05942 26.4896 5.95184 27.3821 5.95184 28.4976C6.0634 29.0554 5.84029 29.5016 5.39407 29.9478ZM22.685 34.41C23.0196 35.9717 23.4659 37.3104 24.0236 38.5375C24.5814 39.8761 25.2507 40.8801 26.0316 41.5495C20.7886 40.4339 16.661 36.418 15.4339 31.1749C16.8842 32.7367 19.4499 33.8522 22.685 34.41ZM15.0993 28.3861C15.0993 27.0474 16.4379 25.5972 18.8921 24.4817C19.8961 24.0355 21.1232 23.5893 22.4619 23.3661C22.2388 24.9279 22.1272 26.6012 22.1272 28.2745C22.1272 29.9478 22.2388 31.6211 22.5734 33.1829C18.1113 32.2905 15.0993 30.5056 15.0993 28.3861ZM28.8205 41.9957C27.3702 41.9957 26.0316 40.657 24.9161 38.2028C24.4698 37.1988 24.0236 35.9717 23.8005 34.6331C25.2507 34.8562 26.8125 34.9677 28.3742 34.9677C28.4858 34.9677 28.5974 34.9677 28.7089 34.9677C30.3822 34.9677 32.0555 34.8562 33.6173 34.5216C33.3942 35.8602 32.948 36.9758 32.5018 38.0913C31.6093 40.5455 30.2707 41.9957 28.8205 41.9957ZM28.8205 33.8522C27.0356 33.8522 25.2507 33.7407 23.689 33.5175C23.3543 31.9558 23.2427 30.1709 23.2427 28.3861C23.2427 26.6012 23.3543 24.8163 23.5774 23.2545C25.1392 22.9199 26.9241 22.8084 28.7089 22.8084C30.4938 22.8084 32.2786 22.9199 33.8404 23.143C34.1751 24.7048 34.2866 26.4896 34.2866 28.2745C34.2866 30.0594 34.1751 31.8443 33.952 33.406C32.2786 33.6291 30.6053 33.8522 28.8205 33.8522ZM28.5974 14.5533C29.936 14.5533 31.3862 15.892 32.5018 18.3462C32.948 19.3502 33.3942 20.5773 33.6173 21.916C32.0555 21.6928 30.3822 21.5812 28.7089 21.5812C27.0356 21.5812 25.3623 21.6928 23.8005 22.0275C24.6929 17.6769 26.4778 14.5533 28.5974 14.5533ZM34.9559 23.2545C36.2946 23.4777 37.4101 23.9239 38.5257 24.3701C40.9799 25.3741 42.4301 26.8243 42.4301 28.163C42.4301 29.5016 41.0914 30.9518 38.6372 32.0674C37.6333 32.5136 36.4061 32.9598 35.0675 33.1829C35.2906 31.6211 35.4022 29.9478 35.4022 28.2745C35.4022 26.4896 35.2906 24.8163 34.9559 23.2545ZM46.1114 8.52945C46.6691 8.52945 47.2269 8.75256 47.5616 9.08722C48.0078 9.42188 48.1194 9.97964 48.2309 10.5374C48.2309 11.0952 48.0078 11.6529 47.6731 11.9876C47.3385 12.4338 46.7807 12.5453 46.2229 12.6569C45.6651 12.6569 45.2189 12.4338 44.7727 12.0991C44.3265 11.7645 44.2149 11.2067 44.1034 10.6489C44.1034 10.0912 44.3265 9.53341 44.6612 9.19875C44.9958 8.75253 45.5536 8.52945 46.1114 8.52945ZM42.0954 25.2626C41.3145 24.5933 40.3105 23.9239 38.9719 23.3661C37.7448 22.8084 36.2946 22.4737 34.7328 22.139C34.3982 20.5772 33.952 19.2387 33.3942 18.0116C32.8364 16.6729 32.1671 15.6689 31.3862 14.888C33.952 15.4458 36.2946 16.6729 38.191 18.5693C40.199 20.3542 41.5377 22.6968 42.0954 25.2626ZM26.4778 3.50951C26.4778 2.95174 26.7009 2.39392 27.0356 2.05925C27.3703 1.72459 27.928 1.50151 28.4858 1.38996C29.0436 1.38996 29.4898 1.61306 29.936 1.94773C30.3822 2.28239 30.4938 2.84015 30.6053 3.39792C30.6053 4.51346 29.7129 5.51747 28.5974 5.51747C28.0396 5.51747 27.4818 5.29437 27.1471 4.9597C26.7009 4.62504 26.4778 4.06728 26.4778 3.50951ZM25.6969 14.888C24.2467 16.4497 23.1312 19.0155 22.5734 22.2506C21.0117 22.5853 19.673 23.0315 18.4459 23.5893C17.1073 24.147 16.1033 24.8163 15.4339 25.5972C15.9917 23.0315 17.2188 20.6888 19.1153 18.7924C20.7886 16.7844 23.1312 15.4458 25.6969 14.888ZM11.0833 12.9916C10.6371 12.9916 9.96782 12.7685 9.63315 12.4338C9.18694 12.0992 9.07537 11.5414 8.96382 10.9836C8.96382 10.4258 9.18693 9.86806 9.52159 9.5334C9.85625 9.08718 10.414 8.97565 10.9718 8.8641C11.5296 8.8641 11.9758 9.08721 12.422 9.42187C12.8682 9.75653 12.9798 10.3143 13.0913 10.8721C13.0913 11.4298 12.8682 11.9876 12.5336 12.3223C12.1989 12.7685 11.6411 12.9916 11.0833 12.9916ZM9.9678 47.4618C9.52158 47.1272 9.41002 46.5694 9.29847 46.0116C9.29847 45.4539 9.52158 44.8961 9.85624 44.5614C10.1909 44.1152 10.7487 44.0036 11.3065 43.8921C11.8642 43.8921 12.3104 44.1152 12.7567 44.4498C13.2029 44.7845 13.3144 45.3423 13.426 45.9001C13.426 46.4579 13.2029 47.0156 12.8682 47.3503C12.0873 48.2427 10.7487 48.2427 9.9678 47.4618ZM31.0515 53.0395C31.0515 54.1551 30.1591 55.1591 29.0436 55.1591C27.928 55.1591 27.0356 54.2667 27.0356 53.1511C27.0356 52.5934 27.2587 52.0355 27.5934 51.7009C27.928 51.2546 28.4858 51.1431 29.0436 51.0316C30.1591 50.92 31.0515 51.924 31.0515 53.0395ZM31.8324 41.661C32.5018 40.8801 33.1711 39.8761 33.7289 38.5375C34.2866 37.3104 34.6213 35.8602 34.9559 34.2984C36.5177 33.9638 37.8564 33.5175 39.195 32.9598C40.5337 32.402 41.5376 31.7327 42.207 30.9518C41.6492 33.5176 40.4221 35.8602 38.5257 37.7566C36.6293 39.7646 34.2866 40.9917 31.8324 41.661ZM46.446 43.5574C47.0038 43.5574 47.5616 43.7805 47.8962 44.1152C48.6771 44.8961 48.6771 46.2348 47.8962 47.0156C47.5616 47.4619 47.0038 47.5734 46.446 47.6849C45.8883 47.6849 45.3305 47.4618 44.9958 47.1272C44.5496 46.7925 44.4381 46.2347 44.3265 45.677C44.3265 45.1192 44.5496 44.5615 44.8843 44.2268C45.3305 43.7806 45.8883 43.5574 46.446 43.5574ZM55.0357 29.5016C54.701 29.9478 54.1433 30.0594 53.5855 30.1709C53.0277 30.1709 52.47 29.9478 52.1353 29.6131C51.6891 29.2785 51.5775 28.7207 51.466 28.163C51.3544 27.6052 51.6891 27.0474 52.0237 26.7128C52.3584 26.2666 52.9162 26.155 53.4739 26.0434C54.5895 26.0434 55.4819 26.9359 55.4819 28.0514C55.5935 28.6092 55.3703 29.0554 55.0357 29.5016Z" fill="white"/>
<path d="M6.12008 34.6185L5.09412 35.0564L5.53197 36.0824L6.55793 35.6445L6.12008 34.6185Z" fill="white"/>
<path d="M5.20406 32.5119L4.1781 32.9497L4.61595 33.9757L5.64191 33.5378L5.20406 32.5119Z" fill="white"/>
<path d="M8.68063 40.777L7.65466 41.2148L8.09251 42.2408L9.11848 41.803L8.68063 40.777Z" fill="white"/>
<path d="M6.99313 36.6225L5.96716 37.0603L6.40501 38.0863L7.43098 37.6484L6.99313 36.6225Z" fill="white"/>
<path d="M7.90418 38.8567L6.87732 39.2927L7.31338 40.3196L8.34024 39.8835L7.90418 38.8567Z" fill="white"/>
<path d="M18.0778 6.67282L17.0472 7.09985L17.4743 8.13039L18.5048 7.70336L18.0778 6.67282Z" fill="white"/>
<path d="M16.0368 7.43869L15.0062 7.86572L15.4333 8.89626L16.4638 8.46923L16.0368 7.43869Z" fill="white"/>
<path d="M20.1774 5.76096L19.1469 6.18799L19.5739 7.21853L20.6044 6.7915L20.1774 5.76096Z" fill="white"/>
<path d="M24.318 4.08347L23.2875 4.5105L23.7145 5.54104L24.745 5.11401L24.318 4.08347Z" fill="white"/>
<path d="M22.1735 4.89182L21.1429 5.31885L21.57 6.34939L22.6005 5.92236L22.1735 4.89182Z" fill="white"/>
<path d="M39.2614 6.14134L38.8344 7.17188L39.8649 7.5989L40.2919 6.56837L39.2614 6.14134Z" fill="white"/>
<path d="M41.3396 7.05857L40.9125 8.08911L41.9431 8.51614L42.3701 7.4856L41.3396 7.05857Z" fill="white"/>
<path d="M35.1715 4.4514L34.7445 5.48193L35.775 5.90896L36.2021 4.87843L35.1715 4.4514Z" fill="white"/>
<path d="M33.0504 3.63548L32.6234 4.66602L33.654 5.09305L34.081 4.06251L33.0504 3.63548Z" fill="white"/>
<path d="M37.2458 5.36936L36.8187 6.3999L37.8493 6.82693L38.2763 5.79639L37.2458 5.36936Z" fill="white"/>
<path d="M15.654 47.6145L15.227 48.645L16.2575 49.072L16.6846 48.0415L15.654 47.6145Z" fill="white"/>
<path d="M21.8239 50.2219L21.3969 51.2524L22.4274 51.6795L22.8544 50.6489L21.8239 50.2219Z" fill="white"/>
<path d="M17.7301 48.5317L17.3031 49.5623L18.3336 49.9893L18.7607 48.9587L17.7301 48.5317Z" fill="white"/>
<path d="M23.9411 51.0378L23.514 52.0684L24.5446 52.4954L24.9716 51.4649L23.9411 51.0378Z" fill="white"/>
<path d="M19.7458 49.3039L19.3187 50.3345L20.3493 50.7615L20.7763 49.731L19.7458 49.3039Z" fill="white"/>
<path d="M36.0094 50.6157L34.9789 51.0427L35.4059 52.0733L36.4364 51.6462L36.0094 50.6157Z" fill="white"/>
<path d="M34.0114 51.4841L32.9808 51.9111L33.4079 52.9417L34.4384 52.5146L34.0114 51.4841Z" fill="white"/>
<path d="M38.0055 49.7463L36.975 50.1733L37.402 51.2039L38.4325 50.7768L38.0055 49.7463Z" fill="white"/>
<path d="M40.15 48.9377L39.1195 49.3647L39.5465 50.3953L40.5771 49.9683L40.15 48.9377Z" fill="white"/>
<path d="M42.1461 48.0686L41.1156 48.4956L41.5426 49.5261L42.5732 49.0991L42.1461 48.0686Z" fill="white"/>
<path d="M6.96345 16.8622L6.54724 17.8972L7.58224 18.3134L7.99845 17.2784L6.96345 16.8622Z" fill="white"/>
<path d="M4.47322 23.143L4.05701 24.178L5.09201 24.5942L5.50822 23.5592L4.47322 23.143Z" fill="white"/>
<path d="M5.28181 21.0009L4.8656 22.0359L5.9006 22.4521L6.31681 21.4171L5.28181 21.0009Z" fill="white"/>
<path d="M6.15486 19.0036L5.73865 20.0386L6.77365 20.4548L7.18986 19.4198L6.15486 19.0036Z" fill="white"/>
<path d="M7.83454 14.8642L7.41833 15.8992L8.45333 16.3154L8.86954 15.2804L7.83454 14.8642Z" fill="white"/>
<path d="M51.2388 34.4784L50.8226 35.5134L51.8576 35.9296L52.2738 34.8946L51.2388 34.4784Z" fill="white"/>
<path d="M50.4302 36.6205L50.014 37.6555L51.049 38.0717L51.4652 37.0367L50.4302 36.6205Z" fill="white"/>
<path d="M52.1119 32.4809L51.6957 33.5159L52.7307 33.9321L53.1469 32.8971L52.1119 32.4809Z" fill="white"/>
<path d="M49.5592 38.6178L49.1429 39.6528L50.1779 40.069L50.5942 39.034L49.5592 38.6178Z" fill="white"/>
<path d="M48.7506 40.7592L48.3344 41.7942L49.3694 42.2104L49.7856 41.1754L48.7506 40.7592Z" fill="white"/>
<path d="M51.8603 20.0216L50.8344 20.4595L51.2722 21.4854L52.2982 21.0476L51.8603 20.0216Z" fill="white"/>
<path d="M52.83 22.105L51.8031 22.541L52.2392 23.5679L53.266 23.1318L52.83 22.105Z" fill="white"/>
<path d="M50.9423 17.9144L49.9164 18.3523L50.3542 19.3783L51.3802 18.9404L50.9423 17.9144Z" fill="white"/>
<path d="M49.2548 13.7604L48.2289 14.1982L48.6667 15.2242L49.6927 14.7864L49.2548 13.7604Z" fill="white"/>
<path d="M50.1659 15.99L49.139 16.426L49.5751 17.4529L50.602 17.0168L50.1659 15.99Z" fill="white"/>
</svg>
