<svg width="55" height="55" viewBox="0 0 55 55" fill="none" xmlns="http://www.w3.org/2000/svg">
<path fill-rule="evenodd" clip-rule="evenodd" d="M27.4754 52.8163C41.5815 52.8163 53.0168 41.381 53.0168 27.2748C53.0168 13.1686 41.5815 1.73333 27.4754 1.73333C13.3692 1.73333 1.93389 13.1686 1.93389 27.2748C1.93389 41.381 13.3692 52.8163 27.4754 52.8163ZM27.4754 54.3201C42.4121 54.3201 54.5207 42.2115 54.5207 27.2748C54.5207 12.3381 42.4121 0.229492 27.4754 0.229492C12.5386 0.229492 0.430054 12.3381 0.430054 27.2748C0.430054 42.2115 12.5386 54.3201 27.4754 54.3201Z" fill="#163E3F"/>
<path d="M16.5062 23.6707C17.6499 23.8572 18.5264 24.2861 19.1355 24.9574C19.7447 25.6163 20.0492 26.4368 20.0492 27.4189C20.0492 28.1772 19.8503 28.8796 19.4525 29.5261C19.0547 30.1601 18.4455 30.6698 17.625 31.0552C16.817 31.4406 15.8224 31.6333 14.6414 31.6333C13.7215 31.6333 12.8139 31.5152 11.9188 31.279C11.0362 31.0303 10.2841 30.6822 9.66248 30.2347L10.8373 27.9224C11.3346 28.2953 11.9064 28.5875 12.5529 28.7988C13.2118 28.9977 13.8831 29.0972 14.5668 29.0972C15.3252 29.0972 15.9219 28.9542 16.357 28.6683C16.7921 28.3699 17.0097 27.9535 17.0097 27.4189C17.0097 26.3497 16.1954 25.8152 14.5668 25.8152H13.1869V23.8199L15.8722 20.7803H10.3151V18.3561H19.4525V20.3141L16.5062 23.6707Z" fill="#163E3F"/>
<path d="M27.7283 23.2231C28.5612 23.2231 29.3196 23.391 30.0033 23.7266C30.6871 24.0623 31.2279 24.5409 31.6257 25.1625C32.0235 25.7717 32.2224 26.4803 32.2224 27.2883C32.2224 28.1586 32.0049 28.9231 31.5697 29.582C31.1346 30.2409 30.5379 30.7506 29.7796 31.1111C29.0337 31.4592 28.2007 31.6333 27.2808 31.6333C25.4533 31.6333 24.0236 31.0738 22.9918 29.955C21.96 28.8361 21.444 27.2386 21.444 25.1625C21.444 23.6831 21.7238 22.4151 22.2832 21.3584C22.8426 20.3017 23.6196 19.4998 24.6141 18.9528C25.6211 18.4058 26.7835 18.1323 28.1013 18.1323C28.7974 18.1323 29.4625 18.2131 30.0966 18.3747C30.743 18.5239 31.29 18.7415 31.7376 19.0274L30.6187 21.2465C29.9723 20.8114 29.158 20.5938 28.1759 20.5938C27.0694 20.5938 26.193 20.917 25.5465 21.5635C24.9001 22.21 24.552 23.1486 24.5023 24.3793C25.273 23.6085 26.3484 23.2231 27.7283 23.2231ZM27.1129 29.3769C27.7594 29.3769 28.2815 29.2028 28.6793 28.8548C29.0896 28.5067 29.2947 28.0343 29.2947 27.4375C29.2947 26.8408 29.0896 26.3684 28.6793 26.0203C28.2815 25.6598 27.747 25.4795 27.0756 25.4795C26.4168 25.4795 25.876 25.666 25.4533 26.039C25.0306 26.3995 24.8193 26.8657 24.8193 27.4375C24.8193 28.0094 25.0244 28.4756 25.4346 28.8361C25.8449 29.1966 26.4043 29.3769 27.1129 29.3769Z" fill="#163E3F"/>
<path d="M38.9117 31.6333C37.8301 31.6333 36.8667 31.366 36.0213 30.8314C35.1759 30.2968 34.5108 29.5261 34.026 28.5191C33.5536 27.4997 33.3174 26.2876 33.3174 24.8828C33.3174 23.478 33.5536 22.2721 34.026 21.2651C34.5108 20.2457 35.1759 19.4687 36.0213 18.9342C36.8667 18.3996 37.8301 18.1323 38.9117 18.1323C39.9933 18.1323 40.9567 18.3996 41.8021 18.9342C42.6474 19.4687 43.3063 20.2457 43.7787 21.2651C44.2636 22.2721 44.506 23.478 44.506 24.8828C44.506 26.2876 44.2636 27.4997 43.7787 28.5191C43.3063 29.5261 42.6474 30.2968 41.8021 30.8314C40.9567 31.366 39.9933 31.6333 38.9117 31.6333ZM38.9117 29.0785C39.7073 29.0785 40.3289 28.7367 40.7765 28.0529C41.2364 27.3692 41.4664 26.3125 41.4664 24.8828C41.4664 23.4531 41.2364 22.3964 40.7765 21.7127C40.3289 21.0289 39.7073 20.6871 38.9117 20.6871C38.1285 20.6871 37.5069 21.0289 37.0469 21.7127C36.5994 22.3964 36.3756 23.4531 36.3756 24.8828C36.3756 26.3125 36.5994 27.3692 37.0469 28.0529C37.5069 28.7367 38.1285 29.0785 38.9117 29.0785Z" fill="#163E3F"/>
<path d="M12.4902 37.7315C12.0723 37.7315 11.6946 37.6414 11.3572 37.4612C11.0236 37.281 10.761 37.0337 10.5693 36.7193C10.3814 36.4011 10.2875 36.0445 10.2875 35.6496C10.2875 35.2547 10.3814 34.9 10.5693 34.5856C10.761 34.2674 11.0236 34.0181 11.3572 33.8379C11.6946 33.6577 12.0723 33.5676 12.4902 33.5676C12.9081 33.5676 13.2839 33.6577 13.6174 33.8379C13.951 34.0181 14.2136 34.2674 14.4054 34.5856C14.5971 34.9 14.6929 35.2547 14.6929 35.6496C14.6929 36.0445 14.5971 36.4011 14.4054 36.7193C14.2136 37.0337 13.951 37.281 13.6174 37.4612C13.2839 37.6414 12.9081 37.7315 12.4902 37.7315ZM12.4902 36.9378C12.7279 36.9378 12.9426 36.8842 13.1343 36.7768C13.326 36.6656 13.4756 36.5123 13.5829 36.3167C13.6941 36.1212 13.7497 35.8988 13.7497 35.6496C13.7497 35.4004 13.6941 35.178 13.5829 34.9824C13.4756 34.7869 13.326 34.6354 13.1343 34.5281C12.9426 34.4169 12.7279 34.3613 12.4902 34.3613C12.2525 34.3613 12.0378 34.4169 11.8461 34.5281C11.6544 34.6354 11.5029 34.7869 11.3917 34.9824C11.2844 35.178 11.2307 35.4004 11.2307 35.6496C11.2307 35.8988 11.2844 36.1212 11.3917 36.3167C11.5029 36.5123 11.6544 36.6656 11.8461 36.7768C12.0378 36.8842 12.2525 36.9378 12.4902 36.9378Z" fill="#163E3F"/>
<path d="M17.1358 33.6366C17.4923 33.6366 17.801 33.6961 18.0617 33.8149C18.3263 33.9338 18.5295 34.1025 18.6713 34.321C18.8132 34.5396 18.8841 34.7984 18.8841 35.0975C18.8841 35.3927 18.8132 35.6515 18.6713 35.8739C18.5295 36.0924 18.3263 36.2611 18.0617 36.38C17.801 36.495 17.4923 36.5525 17.1358 36.5525H16.3248V37.6625H15.3931V33.6366H17.1358ZM17.084 35.7934C17.3639 35.7934 17.5767 35.7339 17.7224 35.6151C17.8681 35.4924 17.9409 35.3198 17.9409 35.0975C17.9409 34.8712 17.8681 34.6987 17.7224 34.5798C17.5767 34.4572 17.3639 34.3958 17.084 34.3958H16.3248V35.7934H17.084Z" fill="#163E3F"/>
<path d="M22.6665 36.9148V37.6625H19.5493V33.6366H22.5917V34.3843H20.4752V35.2585H22.3444V35.9831H20.4752V36.9148H22.6665Z" fill="#163E3F"/>
<path d="M25.9728 37.6625L25.1964 36.541H25.1504H24.3395V37.6625H23.4078V33.6366H25.1504C25.507 33.6366 25.8156 33.6961 26.0764 33.8149C26.3409 33.9338 26.5441 34.1025 26.686 34.321C26.8279 34.5396 26.8988 34.7984 26.8988 35.0975C26.8988 35.3965 26.8259 35.6553 26.6802 35.8739C26.5384 36.0886 26.3352 36.2535 26.0706 36.3685L26.9736 37.6625H25.9728ZM25.9556 35.0975C25.9556 34.8712 25.8827 34.6987 25.737 34.5798C25.5913 34.4572 25.3785 34.3958 25.0986 34.3958H24.3395V35.7991H25.0986C25.3785 35.7991 25.5913 35.7378 25.737 35.6151C25.8827 35.4924 25.9556 35.3198 25.9556 35.0975Z" fill="#163E3F"/>
<path d="M30.2883 36.7998H28.4191L28.0626 37.6625H27.1078L28.9022 33.6366H29.8224L31.6226 37.6625H30.6449L30.2883 36.7998ZM29.995 36.0924L29.3566 34.5511L28.7182 36.0924H29.995Z" fill="#163E3F"/>
<path d="M32.672 34.3958H31.3837V33.6366H34.892V34.3958H33.6037V37.6625H32.672V34.3958Z" fill="#163E3F"/>
<path d="M37.2868 37.7315C36.8688 37.7315 36.4912 37.6414 36.1538 37.4612C35.8202 37.281 35.5576 37.0337 35.3659 36.7193C35.178 36.4011 35.084 36.0445 35.084 35.6496C35.084 35.2547 35.178 34.9 35.3659 34.5856C35.5576 34.2674 35.8202 34.0181 36.1538 33.8379C36.4912 33.6577 36.8688 33.5676 37.2868 33.5676C37.7047 33.5676 38.0804 33.6577 38.414 33.8379C38.7476 34.0181 39.0102 34.2674 39.2019 34.5856C39.3936 34.9 39.4895 35.2547 39.4895 35.6496C39.4895 36.0445 39.3936 36.4011 39.2019 36.7193C39.0102 37.0337 38.7476 37.281 38.414 37.4612C38.0804 37.6414 37.7047 37.7315 37.2868 37.7315ZM37.2868 36.9378C37.5245 36.9378 37.7392 36.8842 37.9309 36.7768C38.1226 36.6656 38.2721 36.5123 38.3795 36.3167C38.4907 36.1212 38.5463 35.8988 38.5463 35.6496C38.5463 35.4004 38.4907 35.178 38.3795 34.9824C38.2721 34.7869 38.1226 34.6354 37.9309 34.5281C37.7392 34.4169 37.5245 34.3613 37.2868 34.3613C37.049 34.3613 36.8343 34.4169 36.6426 34.5281C36.4509 34.6354 36.2995 34.7869 36.1883 34.9824C36.0809 35.178 36.0272 35.4004 36.0272 35.6496C36.0272 35.8988 36.0809 36.1212 36.1883 36.3167C36.2995 36.5123 36.4509 36.6656 36.6426 36.7768C36.8343 36.8842 37.049 36.9378 37.2868 36.9378Z" fill="#163E3F"/>
<path d="M42.7548 37.6625L41.9783 36.541H41.9323H41.1214V37.6625H40.1897V33.6366H41.9323C42.2889 33.6366 42.5976 33.6961 42.8583 33.8149C43.1228 33.9338 43.326 34.1025 43.4679 34.321C43.6098 34.5396 43.6807 34.7984 43.6807 35.0975C43.6807 35.3965 43.6078 35.6553 43.4622 35.8739C43.3203 36.0886 43.1171 36.2535 42.8525 36.3685L43.7555 37.6625H42.7548ZM42.7375 35.0975C42.7375 34.8712 42.6646 34.6987 42.519 34.5798C42.3733 34.4572 42.1605 34.3958 41.8806 34.3958H41.1214V35.7991H41.8806C42.1605 35.7991 42.3733 35.7378 42.519 35.6151C42.6646 35.4924 42.7375 35.3198 42.7375 35.0975Z" fill="#163E3F"/>
</svg>
