<svg width="50" height="55" viewBox="0 0 50 55" fill="none" xmlns="http://www.w3.org/2000/svg">
<path d="M41.0805 36.1758V39.7785H33.0333L29.7352 37.5761L19.6157 33.9893C19.1562 33.8274 18.6693 33.7577 18.1828 33.784C17.6963 33.8103 17.2198 33.9321 16.7804 34.1426C16.341 34.3531 15.9474 34.6481 15.622 35.0107C15.2966 35.3733 15.0459 35.7964 14.884 36.256C14.8658 36.3083 14.8483 36.3607 14.8333 36.4146C14.5861 37.2369 14.6313 38.1195 14.9612 38.9122C15.2911 39.7049 15.8854 40.359 16.6429 40.7631L19.242 42.1436L15.4624 42.1555L13.909 38.268C13.5837 37.4637 12.9582 36.8176 12.1649 36.4665C11.3716 36.1153 10.4728 36.0867 9.65874 36.3866C8.8447 36.6866 8.17934 37.2915 7.80353 38.0734C7.42773 38.8554 7.37097 39.7529 7.64529 40.5759L8.00866 41.6533L5.37545 40.2141C4.57316 39.7892 3.63564 39.6979 2.76647 39.9601C1.8973 40.2223 1.16664 40.8168 0.733161 41.6145C0.299684 42.4122 0.198373 43.3487 0.451238 44.2206C0.704104 45.0925 1.29073 45.8295 2.08372 46.2715L2.19798 46.331L8.12449 49.2562L20.4265 51.7561L36.39 51.7799L41.0709 50.8422V54.1846H49.476V36.175L41.0805 36.1758ZM10.0595 38.963C10.1396 38.864 10.2384 38.7818 10.3503 38.7211C10.4622 38.6604 10.585 38.6224 10.7116 38.6092C10.8382 38.596 10.9661 38.6079 11.0881 38.6443C11.2101 38.6806 11.3238 38.7406 11.4225 38.8209C11.5366 38.9124 11.6281 39.0288 11.6899 39.1613L12.8855 42.1618L10.722 42.1698L9.92861 39.8111C9.87925 39.6701 9.86486 39.5193 9.8867 39.3716C9.90853 39.2238 9.96595 39.0836 10.054 38.963H10.0595ZM41.0805 48.3946L36.1615 49.3839H20.7859L9.044 47.0347L3.25872 44.1786C3.0101 44.0593 2.81872 43.8465 2.72633 43.5867C2.63394 43.3268 2.64801 43.041 2.76548 42.7915C2.88295 42.542 3.09432 42.3491 3.35347 42.2547C3.61261 42.1604 3.89851 42.1724 4.14887 42.288C4.17422 42.2989 4.19888 42.3113 4.22267 42.3253L8.3482 44.5808H19.7434L24.4823 42.2086L17.7711 38.6385C17.4862 38.4853 17.2681 38.2321 17.1587 37.9277C17.0494 37.6233 17.0565 37.2892 17.1787 36.9898C17.301 36.6903 17.5297 36.4466 17.8209 36.3057C18.112 36.1648 18.445 36.1367 18.7557 36.2266C18.7763 36.233 18.7978 36.2393 18.8184 36.2472L28.5261 39.6587L32.3049 42.1809H41.0733V48.3954L41.0805 48.3946ZM47.0839 51.7855H43.4812V38.5774H47.0839V51.7855Z" fill="white"/>
<path d="M24.7449 26.7639C22.1872 26.7639 19.6869 26.0054 17.5602 24.5845C15.4336 23.1635 13.7761 21.1438 12.7973 18.7808C11.8185 16.4178 11.5624 13.8176 12.0614 11.309C12.5603 8.80044 13.792 6.49619 15.6006 4.68761C17.4091 2.87904 19.7134 1.64738 22.222 1.1484C24.7305 0.649411 27.3307 0.905498 29.6937 1.88429C32.0568 2.86308 34.0765 4.52062 35.4974 6.64727C36.9184 8.77393 37.6769 11.2742 37.6769 13.8319C37.6735 17.2606 36.31 20.548 33.8855 22.9725C31.461 25.397 28.1736 26.7606 24.7449 26.7639Z" fill="white"/>
<path d="M25.3166 7.74442C25.9323 7.74505 26.5226 7.98992 26.9579 8.42528C27.3933 8.86064 27.6382 9.45093 27.6388 10.0666H29.961C29.9451 8.84547 29.4487 7.67973 28.5796 6.82183C27.7104 5.96393 26.5382 5.48291 25.317 5.48291C24.0957 5.48291 22.9236 5.96393 22.0544 6.82183C21.1853 7.67973 20.6889 8.84547 20.673 10.0666H18.35V12.3888H20.6722V14.711H18.35V17.0333H20.6722C20.6881 18.2544 21.1845 19.4201 22.0536 20.278C22.9228 21.1359 24.0949 21.6169 25.3162 21.6169C26.5374 21.6169 27.7096 21.1359 28.5788 20.278C29.4479 19.4201 29.9443 18.2544 29.9602 17.0333H27.638C27.638 17.6491 27.3933 18.2398 26.9579 18.6753C26.5224 19.1108 25.9317 19.3555 25.3158 19.3555C24.6999 19.3555 24.1093 19.1108 23.6738 18.6753C23.2383 18.2398 22.9936 17.6491 22.9936 17.0333H25.3158V14.711H22.9936V12.3888H25.3158V10.0666H22.9936C22.9942 9.4508 23.2392 8.86038 23.6747 8.42499C24.1103 7.98961 24.7008 7.74484 25.3166 7.74442Z" fill="#194242"/>
</svg>
