<svg width="59" height="58" viewBox="0 0 59 58" fill="none" xmlns="http://www.w3.org/2000/svg">
<g clip-path="url(#clip0_430_89)">
<path d="M21.8959 17.7703H57.1439V21.4805H21.8959V17.7703Z" fill="white"/>
<path d="M58.0713 22.4079V17.3559L39.5202 0.756836L33.9688 5.7239V5.71158H11.2152L0.615069 20.5525H2.41732V41.1302C1.87624 41.3208 1.40742 41.6743 1.07521 42.142C0.743005 42.6097 0.563694 43.1688 0.56189 43.7425L0.56189 46.5253H21.1396C21.0297 46.8216 20.9718 47.1347 20.9684 47.4507V50.2336H30.4311V48.3801H22.8239V47.4507C22.8242 47.2049 22.922 46.9692 23.0959 46.7953C23.2697 46.6215 23.5054 46.5237 23.7512 46.5233H30.4311V44.6698H24.6793V22.4079H54.361V44.6698H50.6508V29.8283H39.5202V38.2254H41.3756V31.6838H48.796V44.6698H48.6093V46.5253H55.2891C55.5346 46.5256 55.77 46.6232 55.9438 46.7966C56.1176 46.97 56.2156 47.2052 56.2165 47.4507V48.3781H48.6093V50.2336H58.0719V47.4507C58.0701 46.877 57.8908 46.318 57.5586 45.8503C57.2264 45.3825 56.7576 45.0291 56.2165 44.8385V22.4079H58.0713ZM56.2158 18.1847V20.5525H22.8239V18.1847L39.5202 3.24653L56.2158 18.1847ZM12.1705 7.56636H31.9091L20.9684 17.3559V18.6977H4.21893L12.1705 7.56636ZM2.41732 43.7418C2.41767 43.4959 2.51548 43.2603 2.68933 43.0864C2.86317 42.9126 3.09886 42.8148 3.34472 42.8144H22.8239V44.6698H2.41732V43.7418ZM22.8239 40.959H4.27211V20.5525H20.9684V22.4079H22.8239V40.959Z" fill="white"/>
<path d="M37.6652 24.2634H26.5345V33.5374H37.6652V24.2634ZM35.8098 27.9737H33.0269V26.1182H35.8085L35.8098 27.9737ZM31.1722 26.1182V27.9737H28.3893V26.1182H31.1722ZM28.3893 29.8284H31.1722V31.6839H28.3893V29.8284ZM33.0269 31.6839V29.8284H35.8085V31.6839H33.0269Z" fill="white"/>
<path d="M39.521 57.656C37.503 57.656 35.5303 57.0576 33.8524 55.9365C32.1745 54.8153 30.8667 53.2218 30.0944 51.3574C29.3222 49.493 29.1201 47.4415 29.5138 45.4622C29.9075 43.483 30.8793 41.6649 32.3062 40.238C33.7332 38.811 35.5512 37.8393 37.5305 37.4456C39.5097 37.0519 41.5612 37.2539 43.4256 38.0262C45.29 38.7985 46.8836 40.1062 48.0047 41.7842C49.1259 43.4621 49.7243 45.4348 49.7243 47.4528C49.7212 50.1579 48.6452 52.7513 46.7324 54.6642C44.8196 56.577 42.2261 57.653 39.521 57.656Z" fill="white"/>
<path d="M6.1283 31.6838H19.1144V22.4099H6.1283V31.6838ZM7.98373 27.9736H11.6939V29.8291H7.98373V27.9736ZM13.5494 29.8291V27.9736H17.2596V29.8291H13.5494ZM17.2596 26.1188H13.5487V24.2634H17.259L17.2596 26.1188ZM11.6939 24.2634V26.1188H7.98373V24.2634H11.6939Z" fill="white"/>
<path d="M39.9729 42.6478C40.4586 42.6483 40.9243 42.8415 41.2678 43.185C41.6112 43.5285 41.8044 43.9942 41.8049 44.4799H43.6377C43.6196 43.5201 43.2256 42.6056 42.5404 41.9332C41.8552 41.2607 40.9335 40.884 39.9735 40.884C39.0135 40.884 38.0918 41.2607 37.4066 41.9332C36.7214 42.6056 36.3274 43.5201 36.3093 44.4799H34.476V46.3126H36.308V48.1434H34.476V49.9762H36.308C36.2989 50.4632 36.3869 50.9471 36.5669 51.3997C36.7469 51.8523 37.0154 52.2644 37.3565 52.6121C37.6977 52.9597 38.1047 53.2358 38.5538 53.4244C39.003 53.6129 39.4851 53.7099 39.9722 53.7099C40.4593 53.7099 40.9415 53.6129 41.3906 53.4244C41.8397 53.2358 42.2467 52.9597 42.5879 52.6121C42.9291 52.2644 43.1975 51.8523 43.3775 51.3997C43.5575 50.9471 43.6455 50.4632 43.6364 49.9762H41.8043C41.8089 50.2197 41.7649 50.4617 41.6748 50.6881C41.5848 50.9144 41.4506 51.1205 41.28 51.2944C41.1093 51.4682 40.9058 51.6063 40.6812 51.7006C40.4566 51.7948 40.2155 51.8434 39.9719 51.8434C39.7283 51.8434 39.4872 51.7948 39.2626 51.7006C39.038 51.6063 38.8344 51.4682 38.6638 51.2944C38.4932 51.1205 38.359 50.9144 38.2689 50.6881C38.1789 50.4617 38.1349 50.2197 38.1395 49.9762H39.9722V48.1434H38.1395V46.3107H39.9722V44.478H38.1395C38.1405 43.9924 38.3341 43.5269 38.6778 43.1839C39.0215 42.8408 39.4872 42.648 39.9729 42.6478Z" fill="#4A8082"/>
</g>
<defs>
<clipPath id="clip0_430_89">
<rect width="57.51" height="56.8978" fill="white" transform="translate(0.56189 0.756836)"/>
</clipPath>
</defs>
</svg>
